<?xml version="1.0" encoding="UTF-8" standalone="no"?>
<svg xmlns="http://www.w3.org/2000/svg" viewBox="0 0 24 24"><title>Soup</title><g id="Soup"><path d="M21.32,8.33c1.37.33,2.18.73,2.18,1.17,0,1.1-5.15,2-11.5,2S.5,10.61.5,9.5s5.15-2,11.5-2a57.14,57.14,0,0,1,6.19.31" style="fill:none;stroke:#303c42;stroke-linecap:round;stroke-linejoin:round"/><path d="M23.5,9.5c0,9.5-6.09,12-11.5,12S.5,19,.5,9.5" style="fill:none;stroke:#303c42;stroke-linecap:round;stroke-linejoin:round"/><path d="M6.58,20.47a.62.62,0,0,0-.08.28c0,1,2.46,1.75,5.5,1.75s5.5-.78,5.5-1.75a.62.62,0,0,0-.08-.28" style="fill:none;stroke:#303c42;stroke-linecap:round;stroke-linejoin:round"/><path d="M16,11.37l7-4a1,1,0,0,0-1-1.74L11.74,11.5H12" style="fill:none;stroke:#303c42;stroke-linecap:round;stroke-linejoin:round"/><path d="M8.5,1.5c0,2-1,2-1,4" style="fill:none;stroke:#303c42;stroke-linecap:round;stroke-linejoin:round"/><path d="M12.5,1.5c0,2-1,2-1,4" style="fill:none;stroke:#303c42;stroke-linecap:round;stroke-linejoin:round"/><path d="M16.5,1.5c0,2-1,2-1,4" style="fill:none;stroke:#303c42;stroke-linecap:round;stroke-linejoin:round"/></g>
	<metadata>
		<rdf:RDF xmlns:rdf="http://www.w3.org/1999/02/22-rdf-syntax-ns#" xmlns:rdfs="http://www.w3.org/2000/01/rdf-schema#" xmlns:dc="http://purl.org/dc/elements/1.1/">
			<rdf:Description about="https://iconscout.com/legal#licenses" dc:title="food; eat; soup" dc:description="food; eat; soup" dc:publisher="Iconscout" dc:date="2017-02-16" dc:format="image/svg+xml" dc:language="en">
				<dc:creator>
					<rdf:Bag>
						<rdf:li>Alpár - Etele Méder</rdf:li>
					</rdf:Bag>
				</dc:creator>
			</rdf:Description>
		</rdf:RDF>
    </metadata></svg>
