<?xml version="1.0" encoding="UTF-8" standalone="no"?>
<svg xmlns="http://www.w3.org/2000/svg" viewBox="0 0 24 24"><title>Chinese Food </title><g id="Chinese_Food" data-name="Chinese Food"><polygon points="5.5 23.5 3.5 6.5 20.5 6.5 18.5 23.5 5.5 23.5" style="fill:none;stroke:#303c42;stroke-linecap:round;stroke-linejoin:round"/><polygon points="20.5 6.5 20.5 4.5 15.5 0.5 8.5 0.5 3.5 4.5 3.5 6.5 20.5 6.5" style="fill:none;stroke:#303c42;stroke-linecap:round;stroke-linejoin:round"/><polyline points="3.5 6.5 1.5 2.5 4.5 0.5 7.17 1.57" style="fill:none;stroke:#303c42;stroke-linecap:round;stroke-linejoin:round"/><polyline points="20.5 6.5 22.5 2.5 19.5 0.5 16.83 1.57" style="fill:none;stroke:#303c42;stroke-linecap:round;stroke-linejoin:round"/><line x1="10.5" y1="2.5" x2="13.5" y2="2.5" style="fill:none;stroke:#303c42;stroke-linecap:round;stroke-linejoin:round"/><line x1="3.85" y1="9.5" x2="5.35" y2="9.5" style="fill:none;stroke:#303c42;stroke-linecap:round;stroke-linejoin:round"/><line x1="8.01" y1="9.5" x2="17.32" y2="9.5" style="fill:none;stroke:#303c42;stroke-linecap:round;stroke-linejoin:round;stroke-dasharray:2.6588234901428223,2.6588234901428223"/><line x1="18.65" y1="9.5" x2="20.15" y2="9.5" style="fill:none;stroke:#303c42;stroke-linecap:round;stroke-linejoin:round"/><line x1="5.15" y1="20.58" x2="6.15" y2="20.58" style="fill:none;stroke:#303c42;stroke-linecap:round;stroke-linejoin:round"/><line x1="8.49" y1="20.58" x2="16.68" y2="20.58" style="fill:none;stroke:#303c42;stroke-linecap:round;stroke-linejoin:round;stroke-dasharray:2.3411765098571777,2.3411765098571777"/><line x1="17.85" y1="20.58" x2="18.85" y2="20.58" style="fill:none;stroke:#303c42;stroke-linecap:round;stroke-linejoin:round"/></g>
	<metadata>
		<rdf:RDF xmlns:rdf="http://www.w3.org/1999/02/22-rdf-syntax-ns#" xmlns:rdfs="http://www.w3.org/2000/01/rdf-schema#" xmlns:dc="http://purl.org/dc/elements/1.1/">
			<rdf:Description about="https://iconscout.com/legal#licenses" dc:title="food; eat; chinese; box" dc:description="food; eat; chinese; box" dc:publisher="Iconscout" dc:date="2017-02-16" dc:format="image/svg+xml" dc:language="en">
				<dc:creator>
					<rdf:Bag>
						<rdf:li>Alpár - Etele Méder</rdf:li>
					</rdf:Bag>
				</dc:creator>
			</rdf:Description>
		</rdf:RDF>
    </metadata></svg>
